<mxfile host="app.diagrams.net" agent="Mozilla/5.0 (Windows NT 10.0; Win64; x64; rv:133.0) Gecko/20100101 Firefox/133.0" version="25.0.3">
  <diagram name="Pagina-1" id="6KG7eUqO8uxzKmbCFn6A">
    <mxGraphModel dx="1434" dy="773" grid="1" gridSize="10" guides="1" tooltips="1" connect="1" arrows="1" fold="1" page="1" pageScale="1" pageWidth="850" pageHeight="1100" math="0" shadow="0">
      <root>
        <mxCell id="0" />
        <mxCell id="1" parent="0" />
        <mxCell id="w6Vy-4yXhrZIZgirDHm_-2" value="&#xa;  &#xa;    &#xa;      &#xa;        &#xa;        &#xa;        &#xa;          &#xa;        &#xa;        &#xa;          &#xa;        &#xa;        &#xa;          &#xa;        &#xa;        &#xa;          &#xa;        &#xa;        &#xa;          &#xa;        &#xa;        &#xa;          &#xa;        &#xa;        &#xa;          &#xa;        &#xa;        &#xa;          &#xa;            &#xa;            &#xa;              &#xa;            &#xa;          &#xa;        &#xa;        &#xa;          &#xa;        &#xa;        &#xa;          &#xa;            &#xa;            &#xa;              &#xa;            &#xa;          &#xa;        &#xa;        &#xa;          &#xa;        &#xa;        &#xa;          &#xa;            &#xa;            &#xa;              &#xa;            &#xa;          &#xa;        &#xa;        &#xa;          &#xa;        &#xa;        &#xa;          &#xa;            &#xa;            &#xa;              &#xa;            &#xa;          &#xa;        &#xa;        &#xa;          &#xa;            &#xa;            &#xa;          &#xa;        &#xa;        &#xa;          &#xa;            &#xa;            &#xa;          &#xa;        &#xa;        &#xa;          &#xa;            &#xa;            &#xa;            &#xa;              &#xa;            &#xa;          &#xa;        &#xa;      &#xa;    &#xa;  &#xa;&#xa;&#xa;&#xa;    &#xa;" style="text;whiteSpace=wrap;html=1;" parent="1" vertex="1">
          <mxGeometry x="330" y="490" width="30" height="1410" as="geometry" />
        </mxCell>
        <mxCell id="yX1Fl0R12Xeu3HnyX83A-72" value="" style="shape=umlLifeline;perimeter=lifelinePerimeter;whiteSpace=wrap;html=1;container=1;dropTarget=0;collapsible=0;recursiveResize=0;outlineConnect=0;portConstraint=eastwest;newEdgeStyle={&quot;curved&quot;:0,&quot;rounded&quot;:0};participant=umlActor;" vertex="1" parent="1">
          <mxGeometry x="140" y="120" width="20" height="390" as="geometry" />
        </mxCell>
        <mxCell id="yX1Fl0R12Xeu3HnyX83A-73" value="" style="html=1;points=[[0,0,0,0,5],[0,1,0,0,-5],[1,0,0,0,5],[1,1,0,0,-5]];perimeter=orthogonalPerimeter;outlineConnect=0;targetShapes=umlLifeline;portConstraint=eastwest;newEdgeStyle={&quot;curved&quot;:0,&quot;rounded&quot;:0};" vertex="1" parent="yX1Fl0R12Xeu3HnyX83A-72">
          <mxGeometry x="5" y="60" width="10" height="330" as="geometry" />
        </mxCell>
        <mxCell id="yX1Fl0R12Xeu3HnyX83A-74" value=":Rubrica" style="shape=umlLifeline;perimeter=lifelinePerimeter;whiteSpace=wrap;html=1;container=1;dropTarget=0;collapsible=0;recursiveResize=0;outlineConnect=0;portConstraint=eastwest;newEdgeStyle={&quot;curved&quot;:0,&quot;rounded&quot;:0};" vertex="1" parent="1">
          <mxGeometry x="850" y="120" width="100" height="520" as="geometry" />
        </mxCell>
        <mxCell id="yX1Fl0R12Xeu3HnyX83A-75" value="handleAggiungiContatto()" style="html=1;verticalAlign=bottom;endArrow=block;curved=0;rounded=0;" edge="1" parent="1">
          <mxGeometry width="80" relative="1" as="geometry">
            <mxPoint x="155" y="210" as="sourcePoint" />
            <mxPoint x="360" y="210" as="targetPoint" />
            <Array as="points">
              <mxPoint x="250" y="210" />
            </Array>
          </mxGeometry>
        </mxCell>
        <mxCell id="yX1Fl0R12Xeu3HnyX83A-76" value=":RubricaController" style="shape=umlLifeline;perimeter=lifelinePerimeter;whiteSpace=wrap;html=1;container=1;dropTarget=0;collapsible=0;recursiveResize=0;outlineConnect=0;portConstraint=eastwest;newEdgeStyle={&quot;curved&quot;:0,&quot;rounded&quot;:0};" vertex="1" parent="1">
          <mxGeometry x="320" y="120" width="100" height="550" as="geometry" />
        </mxCell>
        <mxCell id="yX1Fl0R12Xeu3HnyX83A-77" value="" style="html=1;points=[[0,0,0,0,5],[0,1,0,0,-5],[1,0,0,0,5],[1,1,0,0,-5]];perimeter=orthogonalPerimeter;outlineConnect=0;targetShapes=umlLifeline;portConstraint=eastwest;newEdgeStyle={&quot;curved&quot;:0,&quot;rounded&quot;:0};" vertex="1" parent="yX1Fl0R12Xeu3HnyX83A-76">
          <mxGeometry x="45" y="70" width="10" height="480" as="geometry" />
        </mxCell>
        <mxCell id="yX1Fl0R12Xeu3HnyX83A-78" value=":Contatto" style="shape=umlLifeline;perimeter=lifelinePerimeter;whiteSpace=wrap;html=1;container=1;dropTarget=0;collapsible=0;recursiveResize=0;outlineConnect=0;portConstraint=eastwest;newEdgeStyle={&quot;curved&quot;:0,&quot;rounded&quot;:0};" vertex="1" parent="1">
          <mxGeometry x="720" y="120" width="100" height="400" as="geometry" />
        </mxCell>
        <mxCell id="yX1Fl0R12Xeu3HnyX83A-79" value="" style="endArrow=block;endFill=1;html=1;edgeStyle=orthogonalEdgeStyle;align=left;verticalAlign=top;rounded=0;entryX=0.1;entryY=0.171;entryDx=0;entryDy=0;entryPerimeter=0;" edge="1" parent="1">
          <mxGeometry x="-1" relative="1" as="geometry">
            <mxPoint x="379" y="660.03" as="sourcePoint" />
            <mxPoint x="897" y="660" as="targetPoint" />
          </mxGeometry>
        </mxCell>
        <mxCell id="yX1Fl0R12Xeu3HnyX83A-80" value="aggiungiContatto(newContact)" style="edgeLabel;resizable=0;html=1;align=left;verticalAlign=bottom;" connectable="0" vertex="1" parent="yX1Fl0R12Xeu3HnyX83A-79">
          <mxGeometry x="-1" relative="1" as="geometry">
            <mxPoint x="50" y="-2" as="offset" />
          </mxGeometry>
        </mxCell>
        <mxCell id="yX1Fl0R12Xeu3HnyX83A-81" value=":RubricaView" style="shape=umlLifeline;perimeter=lifelinePerimeter;whiteSpace=wrap;html=1;container=1;dropTarget=0;collapsible=0;recursiveResize=0;outlineConnect=0;portConstraint=eastwest;newEdgeStyle={&quot;curved&quot;:0,&quot;rounded&quot;:0};" vertex="1" parent="1">
          <mxGeometry x="570" y="120" width="100" height="430" as="geometry" />
        </mxCell>
        <mxCell id="yX1Fl0R12Xeu3HnyX83A-82" value="" style="html=1;points=[[0,0,0,0,5],[0,1,0,0,-5],[1,0,0,0,5],[1,1,0,0,-5]];perimeter=orthogonalPerimeter;outlineConnect=0;targetShapes=umlLifeline;portConstraint=eastwest;newEdgeStyle={&quot;curved&quot;:0,&quot;rounded&quot;:0};" vertex="1" parent="yX1Fl0R12Xeu3HnyX83A-81">
          <mxGeometry x="45" y="70" width="10" height="360" as="geometry" />
        </mxCell>
        <mxCell id="yX1Fl0R12Xeu3HnyX83A-83" value="Contatto(Nome, Cognome, NumeroTel1,...,Email2, Email3)" style="html=1;verticalAlign=bottom;endArrow=block;curved=0;rounded=0;entryX=0;entryY=0;entryDx=0;entryDy=5;" edge="1" parent="1">
          <mxGeometry relative="1" as="geometry">
            <mxPoint x="369.5" y="590" as="sourcePoint" />
            <mxPoint x="765" y="590" as="targetPoint" />
          </mxGeometry>
        </mxCell>
        <mxCell id="yX1Fl0R12Xeu3HnyX83A-84" value="newContact" style="html=1;verticalAlign=bottom;endArrow=open;dashed=1;endSize=8;curved=0;rounded=0;exitX=0;exitY=1;exitDx=0;exitDy=-5;" edge="1" parent="1" source="yX1Fl0R12Xeu3HnyX83A-102" target="yX1Fl0R12Xeu3HnyX83A-76">
          <mxGeometry relative="1" as="geometry">
            <mxPoint x="380" y="415" as="targetPoint" />
          </mxGeometry>
        </mxCell>
        <mxCell id="yX1Fl0R12Xeu3HnyX83A-85" value="getText()" style="html=1;verticalAlign=bottom;endArrow=block;curved=0;rounded=0;" edge="1" parent="1">
          <mxGeometry width="80" relative="1" as="geometry">
            <mxPoint x="379" y="270" as="sourcePoint" />
            <mxPoint x="609" y="270" as="targetPoint" />
          </mxGeometry>
        </mxCell>
        <mxCell id="yX1Fl0R12Xeu3HnyX83A-86" value="&amp;nbsp;Cognome" style="html=1;verticalAlign=bottom;endArrow=open;dashed=1;endSize=8;curved=0;rounded=0;" edge="1" parent="1">
          <mxGeometry relative="1" as="geometry">
            <mxPoint x="608.5" y="290" as="sourcePoint" />
            <mxPoint x="378.5" y="290" as="targetPoint" />
          </mxGeometry>
        </mxCell>
        <mxCell id="yX1Fl0R12Xeu3HnyX83A-87" value="getText()" style="html=1;verticalAlign=bottom;endArrow=block;curved=0;rounded=0;" edge="1" parent="1">
          <mxGeometry width="80" relative="1" as="geometry">
            <mxPoint x="378.5" y="310" as="sourcePoint" />
            <mxPoint x="608.5" y="310" as="targetPoint" />
          </mxGeometry>
        </mxCell>
        <mxCell id="yX1Fl0R12Xeu3HnyX83A-88" value="&amp;nbsp;Email1" style="html=1;verticalAlign=bottom;endArrow=open;dashed=1;endSize=8;curved=0;rounded=0;" edge="1" parent="1">
          <mxGeometry relative="1" as="geometry">
            <mxPoint x="609" y="334.5" as="sourcePoint" />
            <mxPoint x="379" y="334.5" as="targetPoint" />
          </mxGeometry>
        </mxCell>
        <mxCell id="yX1Fl0R12Xeu3HnyX83A-89" value="getText()" style="html=1;verticalAlign=bottom;endArrow=block;curved=0;rounded=0;" edge="1" parent="1">
          <mxGeometry width="80" relative="1" as="geometry">
            <mxPoint x="379" y="360" as="sourcePoint" />
            <mxPoint x="609" y="360" as="targetPoint" />
          </mxGeometry>
        </mxCell>
        <mxCell id="yX1Fl0R12Xeu3HnyX83A-90" value="Email2" style="html=1;verticalAlign=bottom;endArrow=open;dashed=1;endSize=8;curved=0;rounded=0;" edge="1" parent="1">
          <mxGeometry relative="1" as="geometry">
            <mxPoint x="609" y="379.5" as="sourcePoint" />
            <mxPoint x="379" y="379.5" as="targetPoint" />
          </mxGeometry>
        </mxCell>
        <mxCell id="yX1Fl0R12Xeu3HnyX83A-91" value="" style="html=1;points=[[0,0,0,0,5],[0,1,0,0,-5],[1,0,0,0,5],[1,1,0,0,-5]];perimeter=orthogonalPerimeter;outlineConnect=0;targetShapes=umlLifeline;portConstraint=eastwest;newEdgeStyle={&quot;curved&quot;:0,&quot;rounded&quot;:0};" vertex="1" parent="1">
          <mxGeometry x="897" y="610" width="10" height="70" as="geometry" />
        </mxCell>
        <mxCell id="yX1Fl0R12Xeu3HnyX83A-92" value="getText()" style="html=1;verticalAlign=bottom;endArrow=block;curved=0;rounded=0;" edge="1" parent="1">
          <mxGeometry width="80" relative="1" as="geometry">
            <mxPoint x="379" y="400" as="sourcePoint" />
            <mxPoint x="609" y="400" as="targetPoint" />
          </mxGeometry>
        </mxCell>
        <mxCell id="yX1Fl0R12Xeu3HnyX83A-93" value="Email3" style="html=1;verticalAlign=bottom;endArrow=open;dashed=1;endSize=8;curved=0;rounded=0;" edge="1" parent="1">
          <mxGeometry relative="1" as="geometry">
            <mxPoint x="608.5" y="420" as="sourcePoint" />
            <mxPoint x="378.5" y="420" as="targetPoint" />
          </mxGeometry>
        </mxCell>
        <mxCell id="yX1Fl0R12Xeu3HnyX83A-94" value="getText()" style="html=1;verticalAlign=bottom;endArrow=block;curved=0;rounded=0;" edge="1" parent="1">
          <mxGeometry width="80" relative="1" as="geometry">
            <mxPoint x="378.5" y="440" as="sourcePoint" />
            <mxPoint x="608.5" y="440" as="targetPoint" />
          </mxGeometry>
        </mxCell>
        <mxCell id="yX1Fl0R12Xeu3HnyX83A-95" value="NumeroTel1" style="html=1;verticalAlign=bottom;endArrow=open;dashed=1;endSize=8;curved=0;rounded=0;" edge="1" parent="1">
          <mxGeometry relative="1" as="geometry">
            <mxPoint x="609" y="460" as="sourcePoint" />
            <mxPoint x="379" y="460" as="targetPoint" />
          </mxGeometry>
        </mxCell>
        <mxCell id="yX1Fl0R12Xeu3HnyX83A-96" value="getText()" style="html=1;verticalAlign=bottom;endArrow=block;curved=0;rounded=0;" edge="1" parent="1">
          <mxGeometry width="80" relative="1" as="geometry">
            <mxPoint x="379" y="480" as="sourcePoint" />
            <mxPoint x="609" y="480" as="targetPoint" />
          </mxGeometry>
        </mxCell>
        <mxCell id="yX1Fl0R12Xeu3HnyX83A-97" value="NumeroTel2" style="html=1;verticalAlign=bottom;endArrow=open;dashed=1;endSize=8;curved=0;rounded=0;" edge="1" parent="1">
          <mxGeometry relative="1" as="geometry">
            <mxPoint x="608.5" y="500" as="sourcePoint" />
            <mxPoint x="378.5" y="500" as="targetPoint" />
          </mxGeometry>
        </mxCell>
        <mxCell id="yX1Fl0R12Xeu3HnyX83A-98" value="getText()" style="html=1;verticalAlign=bottom;endArrow=block;curved=0;rounded=0;" edge="1" parent="1">
          <mxGeometry width="80" relative="1" as="geometry">
            <mxPoint x="379" y="230" as="sourcePoint" />
            <mxPoint x="609" y="230" as="targetPoint" />
          </mxGeometry>
        </mxCell>
        <mxCell id="yX1Fl0R12Xeu3HnyX83A-99" value="&amp;nbsp;Nome" style="html=1;verticalAlign=bottom;endArrow=open;dashed=1;endSize=8;curved=0;rounded=0;" edge="1" parent="1">
          <mxGeometry relative="1" as="geometry">
            <mxPoint x="608.5" y="250" as="sourcePoint" />
            <mxPoint x="378.5" y="250" as="targetPoint" />
          </mxGeometry>
        </mxCell>
        <mxCell id="yX1Fl0R12Xeu3HnyX83A-100" value="getText()" style="html=1;verticalAlign=bottom;endArrow=block;curved=0;rounded=0;" edge="1" parent="1">
          <mxGeometry width="80" relative="1" as="geometry">
            <mxPoint x="379" y="520" as="sourcePoint" />
            <mxPoint x="609" y="520" as="targetPoint" />
          </mxGeometry>
        </mxCell>
        <mxCell id="yX1Fl0R12Xeu3HnyX83A-101" value="NumeroTel3" style="html=1;verticalAlign=bottom;endArrow=open;dashed=1;endSize=8;curved=0;rounded=0;" edge="1" parent="1">
          <mxGeometry relative="1" as="geometry">
            <mxPoint x="609" y="540" as="sourcePoint" />
            <mxPoint x="379" y="540" as="targetPoint" />
          </mxGeometry>
        </mxCell>
        <mxCell id="yX1Fl0R12Xeu3HnyX83A-102" value="" style="html=1;points=[[0,0,0,0,5],[0,1,0,0,-5],[1,0,0,0,5],[1,1,0,0,-5]];perimeter=orthogonalPerimeter;outlineConnect=0;targetShapes=umlLifeline;portConstraint=eastwest;newEdgeStyle={&quot;curved&quot;:0,&quot;rounded&quot;:0};" vertex="1" parent="1">
          <mxGeometry x="765" y="545" width="10" height="80" as="geometry" />
        </mxCell>
      </root>
    </mxGraphModel>
  </diagram>
</mxfile>
